<svg id="Layer_1" data-name="Layer 1" xmlns="http://www.w3.org/2000/svg" xmlns:xlink="http://www.w3.org/1999/xlink" width="742.135" height="542.147" viewBox="0 0 742.135 542.147">
  <defs>
    <linearGradient id="linear-gradient" y1="0.5" x2="1" y2="0.5" gradientUnits="objectBoundingBox">
      <stop offset="0" stop-color="#7a57cf"/>
      <stop offset="0.52" stop-color="#4ec0e8"/>
      <stop offset="1" stop-color="#58e6c4"/>
    </linearGradient>
    <linearGradient id="linear-gradient-2" y1="0.5" x2="1" y2="0.5" gradientUnits="objectBoundingBox">
      <stop offset="0" stop-color="#7a57cf"/>
      <stop offset="0.49" stop-color="#4ec0e8"/>
      <stop offset="1" stop-color="#58e6c4"/>
    </linearGradient>
  </defs>
  <path id="Path_2" data-name="Path 2" d="M44.94,211.26a12.857,12.857,0,0,1-4.275,9.852,14.282,14.282,0,0,1-9.945,3.934A13.321,13.321,0,0,1,16.686,211.26V80.556A13.228,13.228,0,0,1,20.775,70.7a14.375,14.375,0,0,1,10.409-3.965,13.569,13.569,0,0,1,9.6,3.965,12.981,12.981,0,0,1,4.182,9.852Zm96.347-109.452q16.729,0,25.465,7A35.627,35.627,0,0,1,178.71,127.4a95.108,95.108,0,0,1,3.16,25.961v57.9a13.538,13.538,0,0,1-3.841,9.852,14,14,0,0,1-19.455,0,13.662,13.662,0,0,1-3.842-9.852v-57.9a44.3,44.3,0,0,0-1.921-13.445,18.588,18.588,0,0,0-6.878-9.6,24.04,24.04,0,0,0-14.127-3.5,29.9,29.9,0,0,0-15.273,3.625,24.784,24.784,0,0,0-9.511,9.6,27.882,27.882,0,0,0-3.284,13.445v57.9a13.538,13.538,0,0,1-3.841,9.852,14,14,0,0,1-19.455,0,13.662,13.662,0,0,1-3.9-9.975v-93.4a13.631,13.631,0,0,1,3.841-9.821,13.91,13.91,0,0,1,19.455,0,13.507,13.507,0,0,1,3.842,9.821v9.728l-3.315-.774a44.455,44.455,0,0,1,5.886-8.241,55.764,55.764,0,0,1,9.046-8.272,46.47,46.47,0,0,1,11.741-6.2,40.955,40.955,0,0,1,14.251-2.292Zm134.793,4.523a12.392,12.392,0,0,1,9.046,3.5,12.826,12.826,0,0,1,0,17.875,12.392,12.392,0,0,1-9.046,3.5H216.165a12.392,12.392,0,0,1-9.046-3.5,12.826,12.826,0,0,1,0-17.875,12.392,12.392,0,0,1,9.046-3.5ZM273.6,57.693a35.626,35.626,0,0,1,9.728,1.363,18.588,18.588,0,0,1,7.9,4.4,10.719,10.719,0,0,1,3.1,8.055,12.113,12.113,0,0,1-3.1,8.922,10.44,10.44,0,0,1-7.59,3.284,27.48,27.48,0,0,1-6.2-1.022,32.592,32.592,0,0,0-7.931-1.022,13.6,13.6,0,0,0-8.705,2.478,13.2,13.2,0,0,0-4.182,5.793,18.062,18.062,0,0,0-1.115,5.886V211.384a13.662,13.662,0,0,1-3.842,9.852,14,14,0,0,1-19.455,0,13.538,13.538,0,0,1-3.873-9.975V95.829a36.494,36.494,0,0,1,11.308-27.138Q250.986,57.724,273.6,57.693Zm43.867,31.661a17.782,17.782,0,0,1-10.843-2.478,10.533,10.533,0,0,1-3.1-8.829V73.771a10.13,10.13,0,0,1,3.408-8.922,19.486,19.486,0,0,1,10.75-2.354,18.34,18.34,0,0,1,11.091,2.478,10.657,10.657,0,0,1,3.1,8.829v4.275a10.224,10.224,0,0,1-3.377,8.953A19.951,19.951,0,0,1,317.469,89.354ZM331.255,211.26a13.538,13.538,0,0,1-3.841,9.852,14,14,0,0,1-19.455,0,13.538,13.538,0,0,1-3.841-9.852v-93.4a13.507,13.507,0,0,1,3.841-9.821,13.91,13.91,0,0,1,19.455,0,13.507,13.507,0,0,1,3.842,9.821Zm57.22,0a13.507,13.507,0,0,1-13.786,13.786,12.733,12.733,0,0,1-9.511-3.934,13.538,13.538,0,0,1-3.841-9.852V71.51a13.538,13.538,0,0,1,13.786-13.817,12.7,12.7,0,0,1,9.635,4.058,13.817,13.817,0,0,1,3.718,9.852Zm61.061,0a13.507,13.507,0,0,1-13.786,13.786,12.733,12.733,0,0,1-9.511-3.934,13.538,13.538,0,0,1-3.842-9.852V71.51a13.538,13.538,0,0,1,13.786-13.817,12.7,12.7,0,0,1,9.635,4.058,13.817,13.817,0,0,1,3.717,9.852Zm43.651,13.569a12.237,12.237,0,0,1-13.569-13.569v-3.9a12.237,12.237,0,0,1,13.569-13.569h2.943A12.237,12.237,0,0,1,509.7,207.356V211.2a12.237,12.237,0,0,1-13.569,13.569ZM549.26,89.354a17.844,17.844,0,0,1-10.843-2.478,10.6,10.6,0,0,1-3.1-8.829V73.771a10.037,10.037,0,0,1,3.439-8.922,19.424,19.424,0,0,1,10.75-2.354,18.309,18.309,0,0,1,11.06,2.478,10.657,10.657,0,0,1,3.1,8.829v4.275a10.223,10.223,0,0,1-3.408,8.953,19.858,19.858,0,0,1-11,2.324ZM563.077,211.26a13.662,13.662,0,0,1-3.841,9.852,14,14,0,0,1-19.455,0,13.538,13.538,0,0,1-3.842-9.852v-93.4a13.507,13.507,0,0,1,3.841-9.821,13.91,13.91,0,0,1,19.455,0,13.631,13.631,0,0,1,3.841,9.821Zm144.056-46.47a63.509,63.509,0,0,1-8.272,32.684,59.141,59.141,0,0,1-22.151,22.058,65.057,65.057,0,0,1-62.207,0,59.357,59.357,0,0,1-22.151-22.058,68.713,68.713,0,0,1,0-65.367A60.286,60.286,0,0,1,614.5,109.956a64.283,64.283,0,0,1,62.207,0,60.069,60.069,0,0,1,22.151,22.151,63.6,63.6,0,0,1,8.272,32.56Zm-27.138,0a41.08,41.08,0,0,0-4.647-20.013,34.789,34.789,0,0,0-12.392-13.228,34.078,34.078,0,0,0-34.6,0,34.635,34.635,0,0,0-12.392,13.228,41.079,41.079,0,0,0-4.616,20.013,40.459,40.459,0,0,0,4.616,19.8,33.449,33.449,0,0,0,59.388,0,40.46,40.46,0,0,0,4.647-19.92Z" transform="translate(34.988 121.03)" fill="url(#linear-gradient)"/>
  <path id="Path_3" data-name="Path 3" d="M356.771,8.62H149.206A140.462,140.462,0,0,0,8.62,149.206V356.771A140.456,140.456,0,0,0,149.175,497.2h207.6A140.456,140.456,0,0,0,497.2,356.8V336.913h-5.731v-47.74H497.2V149.206A140.462,140.462,0,0,0,356.771,8.62Z" transform="translate(18.085 18.085)" fill="none"/>
  <path id="Path_4" data-name="Path 4" d="M515.287,364.911A150.376,150.376,0,0,1,364.911,515.287h-187.8A150.407,150.407,0,0,1,26.7,364.911v-187.8A150.407,150.407,0,0,1,177.112,26.7h187.8A150.4,150.4,0,0,1,515.287,177.081V297.406a9.913,9.913,0,0,0,9.914,9.914h6.878a9.914,9.914,0,0,0,10.068-9.914V177.112A177.081,177.081,0,0,0,364.911,0h-187.8A177.087,177.087,0,0,0,0,177.143V364.911A177.08,177.08,0,0,0,177.112,542.146h187.8A177.08,177.08,0,0,0,542.146,364.911h0a9.944,9.944,0,0,0-9.914-9.944h-6.877a9.945,9.945,0,0,0-9.914,9.944Z" transform="translate(0 0)" fill="url(#linear-gradient-2)"/>
</svg>
