<svg id="Layer_1" data-name="Layer 1" xmlns="http://www.w3.org/2000/svg" xmlns:xlink="http://www.w3.org/1999/xlink" width="200.693" height="133.235" viewBox="0 0 200.693 133.235">
  <defs>
    <linearGradient id="linear-gradient" y1="0.5" x2="1" y2="0.5" gradientUnits="objectBoundingBox">
      <stop offset="0" stop-color="#7a57cf"/>
      <stop offset="0.52" stop-color="#4ec0e8"/>
      <stop offset="1" stop-color="#58e6c4"/>
    </linearGradient>
    <linearGradient id="linear-gradient-2" y1="0.5" x2="1" y2="0.5" gradientUnits="objectBoundingBox">
      <stop offset="0" stop-color="#7a57cf"/>
      <stop offset="0.49" stop-color="#4ec0e8"/>
      <stop offset="1" stop-color="#58e6c4"/>
    </linearGradient>
  </defs>
  <path id="Path_2" data-name="Path 2" d="M24.2,107.893a4.694,4.694,0,0,1-1.138,3.221,3.457,3.457,0,0,1-2.647,1.286,3.209,3.209,0,0,1-2.677-1.242,4.922,4.922,0,0,1-1.059-3.265V65.164a4.863,4.863,0,0,1,1.089-3.221,3.463,3.463,0,0,1,2.771-1.3,3.309,3.309,0,0,1,2.557,1.3,4.755,4.755,0,0,1,1.113,3.221ZM49.848,72.112q4.453,0,6.779,2.289a12.176,12.176,0,0,1,3.183,6.077,37.842,37.842,0,0,1,.841,8.487v18.929a5.019,5.019,0,0,1-1.023,3.221,3.252,3.252,0,0,1-5.179,0,5.066,5.066,0,0,1-1.023-3.221V88.964a17.571,17.571,0,0,0-.511-4.4,6.191,6.191,0,0,0-1.831-3.14,5.5,5.5,0,0,0-3.761-1.144,6.8,6.8,0,0,0-4.066,1.185,7.555,7.555,0,0,0-2.532,3.14,10.823,10.823,0,0,0-.874,4.4v18.929a5.019,5.019,0,0,1-1.023,3.221,3.252,3.252,0,0,1-5.179,0,5.062,5.062,0,0,1-1.039-3.261V77.358a5.053,5.053,0,0,1,1.023-3.21,3.234,3.234,0,0,1,5.179,0,5.006,5.006,0,0,1,1.023,3.21v3.18l-.882-.253a14.88,14.88,0,0,1,1.567-2.694,16.515,16.515,0,0,1,2.408-2.7,11.8,11.8,0,0,1,3.126-2.026,9.081,9.081,0,0,1,3.794-.749ZM85.73,73.591a2.993,2.993,0,0,1,2.408,1.144,4.9,4.9,0,0,1,0,5.844,2.993,2.993,0,0,1-2.408,1.144H69.781a2.993,2.993,0,0,1-2.408-1.144,4.9,4.9,0,0,1,0-5.844,2.993,2.993,0,0,1,2.408-1.144Zm-.66-15.9a7.854,7.854,0,0,1,2.589.446,4.789,4.789,0,0,1,2.1,1.438,3.977,3.977,0,0,1,.825,2.633,4.547,4.547,0,0,1-.825,2.917,2.568,2.568,0,0,1-2.02,1.074,6.087,6.087,0,0,1-1.649-.334,7.166,7.166,0,0,0-2.111-.334,3.152,3.152,0,0,0-2.317.81,4.393,4.393,0,0,0-1.113,1.894,7.109,7.109,0,0,0-.3,1.924v37.776a5.066,5.066,0,0,1-1.023,3.221,3.252,3.252,0,0,1-5.179,0,5.02,5.02,0,0,1-1.031-3.261V70.157a13.409,13.409,0,0,1,3.01-8.872Q79.05,57.7,85.07,57.69ZM96.748,68.041a4.044,4.044,0,0,1-2.886-.81,3.935,3.935,0,0,1-.825-2.886v-1.4a3.743,3.743,0,0,1,.907-2.917,4.41,4.41,0,0,1,2.862-.77,4.164,4.164,0,0,1,2.952.81,3.983,3.983,0,0,1,.825,2.886v1.4a3.784,3.784,0,0,1-.9,2.927A4.505,4.505,0,0,1,96.748,68.041Zm3.67,39.853a5.019,5.019,0,0,1-1.023,3.221,3.252,3.252,0,0,1-5.179,0,5.019,5.019,0,0,1-1.023-3.221V77.358a5.006,5.006,0,0,1,1.023-3.21,3.234,3.234,0,0,1,5.179,0,5.005,5.005,0,0,1,1.023,3.21Zm15.232,0a4.988,4.988,0,0,1-1.052,3.214,3.282,3.282,0,0,1-2.617,1.292,3.11,3.11,0,0,1-2.532-1.286,5.019,5.019,0,0,1-1.023-3.221V62.207a5,5,0,0,1,1.052-3.218,3.292,3.292,0,0,1,2.618-1.3,3.113,3.113,0,0,1,2.565,1.327,5.145,5.145,0,0,1,.99,3.221Zm16.254,0a4.988,4.988,0,0,1-1.052,3.214,3.282,3.282,0,0,1-2.617,1.292,3.11,3.11,0,0,1-2.532-1.286,5.019,5.019,0,0,1-1.023-3.221V62.207a5,5,0,0,1,1.052-3.218,3.292,3.292,0,0,1,2.618-1.3,3.113,3.113,0,0,1,2.565,1.327,5.145,5.145,0,0,1,.99,3.221Zm11.62,4.436a2.922,2.922,0,0,1-2.68-1.145,4.578,4.578,0,0,1-.932-3.291v-1.276a4.578,4.578,0,0,1,.932-3.291,2.922,2.922,0,0,1,2.68-1.145h.783a2.922,2.922,0,0,1,2.68,1.145,4.578,4.578,0,0,1,.932,3.291v1.256a4.578,4.578,0,0,1-.932,3.291,2.922,2.922,0,0,1-2.68,1.145ZM158.45,68.041a4.058,4.058,0,0,1-2.886-.81,3.959,3.959,0,0,1-.825-2.886v-1.4a3.7,3.7,0,0,1,.915-2.917,4.4,4.4,0,0,1,2.862-.77,4.157,4.157,0,0,1,2.944.81,3.983,3.983,0,0,1,.825,2.886v1.4a3.78,3.78,0,0,1-.907,2.927,4.485,4.485,0,0,1-2.928.76Zm3.678,39.853a5.066,5.066,0,0,1-1.023,3.221,3.252,3.252,0,0,1-5.179,0,5.019,5.019,0,0,1-1.023-3.221V77.358a5.005,5.005,0,0,1,1.023-3.21,3.234,3.234,0,0,1,5.179,0,5.053,5.053,0,0,1,1.023,3.21ZM200.476,92.7a24.586,24.586,0,0,1-2.2,10.685,17.955,17.955,0,0,1-5.9,7.211,14.538,14.538,0,0,1-16.56,0,18.021,18.021,0,0,1-5.9-7.211,27.027,27.027,0,0,1,0-21.369,18.327,18.327,0,0,1,5.9-7.241,14.376,14.376,0,0,1,16.56,0,18.261,18.261,0,0,1,5.9,7.241,24.618,24.618,0,0,1,2.2,10.644Zm-7.224,0a15.987,15.987,0,0,0-1.237-6.542,10.781,10.781,0,0,0-3.3-4.325,7.647,7.647,0,0,0-9.212,0,10.734,10.734,0,0,0-3.3,4.325,15.991,15.991,0,0,0-1.229,6.543,15.741,15.741,0,0,0,1.229,6.472,10.666,10.666,0,0,0,3.3,4.325,7.647,7.647,0,0,0,9.212,0,10.715,10.715,0,0,0,3.3-4.325,15.739,15.739,0,0,0,1.237-6.512Z" transform="translate(0.213 -20.38)" fill="url(#linear-gradient)"/>
  <path id="Path_3" data-name="Path 3" d="M122.435,8.62H54.58c-12.193-.008-23.889,3.5-32.51,9.744S8.609,33.085,8.62,41.919V91.082c0,18.375,20.577,33.274,45.949,33.262h67.866c25.342,0,45.9-14.886,45.909-33.255V86.378H166.47V75.071h1.874V41.919c.022-18.383-20.537-33.295-45.909-33.3Z" transform="translate(0.11 0.11)" fill="none"/>
  <path id="Path_4" data-name="Path 4" d="M128.61,89.678c0,20.41-16.8,36.956-37.532,36.956H44.205c-20.73,0-37.536-16.544-37.54-36.956V43.526c0-20.414,16.807-36.963,37.54-36.963H91.078c20.722,0,37.528,16.544,37.532,36.956V73.089a2.456,2.456,0,0,0,2.474,2.436H132.8a2.5,2.5,0,0,0,1.775-.7,2.418,2.418,0,0,0,.738-1.736V43.526a43.187,43.187,0,0,0-12.962-30.8A44.546,44.546,0,0,0,91.078,0H44.205C19.782,0-.009,19.493,0,43.534V89.678a43.181,43.181,0,0,0,12.934,30.8,44.549,44.549,0,0,0,31.271,12.757H91.078a44.55,44.55,0,0,0,31.291-12.746,43.182,43.182,0,0,0,12.945-30.81h0a2.463,2.463,0,0,0-2.474-2.444h-1.717a2.463,2.463,0,0,0-2.474,2.444Z" transform="translate(0 0)" fill="url(#linear-gradient-2)"/>
</svg>
