<svg id="Capa_1" enable-background="new 0 0 512 512" height="512" viewBox="0 0 512 512" width="512" xmlns="http://www.w3.org/2000/svg"><g><g><path d="m392.372 504.5v-311.13l-87.884-81.823h-96.976l-87.884 81.823v311.13z" fill="#ffe07d"/></g><g><path d="m313.058 412.198c-48.093 48.093-105.752 79.134-163.76 92.302h243.074v-213.357c-16.528 43.153-43.079 84.82-79.314 121.055z" fill="#ffd064"/></g><g><path d="m151.953 451.972v-224.328c0-11.158 9.045-20.203 20.203-20.203h167.687c11.158 0 20.203 9.045 20.203 20.203v224.328c0 11.158-9.045 20.203-20.203 20.203h-167.686c-11.158 0-20.204-9.046-20.204-20.203z" fill="#ecf4ff"/></g><g><path d="m313.058 412.198c-24.432 24.432-51.336 44.454-79.498 59.977h106.283c11.158 0 20.203-9.045 20.203-20.203v-97.619c-13.22 20.308-28.897 39.754-46.988 57.845z" fill="#cbe2ff"/></g><g><path d="m392.37 274.01c4.143 0 7.5-3.358 7.5-7.5v-73.14c0-2.082-.865-4.07-2.39-5.489l-87.88-81.82c-1.388-1.292-3.214-2.011-5.11-2.011h-22.265c7.693-27.49 11.579-49.668 11.579-66.245.001-20.846-16.958-37.805-37.804-37.805s-37.805 16.959-37.805 37.805c0 11.5.007 32.085 9.583 66.245h-20.268c-1.896 0-3.723.718-5.111 2.011l-87.88 81.82c-1.523 1.419-2.389 3.407-2.389 5.489v311.13c0 4.142 3.358 7.5 7.5 7.5h272.74c4.143 0 7.5-3.358 7.5-7.5v-202.89c0-4.142-3.357-7.5-7.5-7.5s-7.5 3.358-7.5 7.5v195.39h-257.74v-300.365l83.331-77.585h51.627c-3.603 11.457-7.929 24.201-13.13 38.406-1.424 3.89.574 8.197 4.463 9.622.851.312 1.722.459 2.579.459 3.058 0 5.93-1.884 7.043-4.923 5.716-15.608 10.641-30.137 14.773-43.564h23.723l83.331 77.585v69.875c0 4.142 3.358 7.5 7.5 7.5zm-148.984-169.96c-10.182-34.645-10.19-55.045-10.19-66.245-.001-12.575 10.229-22.805 22.804-22.805 12.574 0 22.805 10.23 22.805 22.805 0 12.045-2.487 32.476-12.194 66.245z"/><path d="m151.95 399.22c-4.142 0-7.5 3.358-7.5 7.5v45.25c0 15.273 12.431 27.7 27.71 27.7h167.68c15.279 0 27.71-12.426 27.71-27.7v-224.33c0-15.274-12.431-27.7-27.71-27.7h-167.68c-15.279 0-27.71 12.426-27.71 27.7v143.98c0 4.142 3.358 7.5 7.5 7.5s7.5-3.358 7.5-7.5v-143.98c0-7.003 5.702-12.7 12.71-12.7h167.68c7.009 0 12.71 5.697 12.71 12.7v224.33c0 7.002-5.701 12.7-12.71 12.7h-167.68c-7.008 0-12.71-5.697-12.71-12.7v-45.25c0-4.142-3.358-7.5-7.5-7.5z"/><path d="m255.768 240.13c-4.142 0-7.5 3.358-7.5 7.5v11.455c-3.579.167-7.292.635-11.107 1.516-13.875 3.202-24.265 14.299-27.115 28.961-2.775 14.279 2.5 28.453 13.439 36.111 5.939 4.157 14.408 8.564 24.783 13.442v64.355c-9.942-.341-15.813-2.056-26.293-8.912-3.468-2.269-8.115-1.296-10.382 2.17-2.268 3.466-1.296 8.115 2.17 10.382 13.482 8.82 22.059 10.963 34.505 11.356v13.518c0 4.142 3.358 7.5 7.5 7.5s7.5-3.358 7.5-7.5v-13.988c22.139-3.104 35.215-19.185 38.528-35.077 4.204-20.161-6.285-39.05-26.722-48.123-3.775-1.676-7.78-3.454-11.807-5.278v-54.058c10.497 2.454 17.565 7.198 17.678 7.275 3.398 2.347 8.057 1.503 10.417-1.89 2.365-3.4 1.525-8.075-1.875-10.44-.641-.446-11.009-7.515-26.22-10.29v-12.485c.001-4.142-3.357-7.5-7.499-7.5zm13.22 108.376c16.642 7.388 20.273 21.039 18.123 31.351-2.082 9.983-10.15 20.077-23.844 22.899v-56.799c1.872.838 3.772 1.684 5.721 2.549zm-36.901-35.121c-6.09-4.264-8.962-12.491-7.316-20.96 1.729-8.896 7.622-15.329 15.763-17.207 2.636-.608 5.221-.957 7.734-1.106v48.359c-6.488-3.205-12.245-6.331-16.181-9.086z"/></g></g></svg>