<svg xmlns="http://www.w3.org/2000/svg" xmlns:xlink="http://www.w3.org/1999/xlink" width="1994.186" height="1533.718" viewBox="0 0 1994.186 1533.718">
  <defs>
    <linearGradient id="linear-gradient" y1="0.5" x2="1" y2="0.5" gradientUnits="objectBoundingBox">
      <stop offset="0" stop-color="#7a57cf"/>
      <stop offset="0.52" stop-color="#4ec0e8"/>
      <stop offset="1" stop-color="#58e6c4"/>
    </linearGradient>
  </defs>
  <g id="Layer_2" data-name="Layer 2" transform="matrix(-0.861, 0.231, 0.11, -0.787, 986.798, 793.422)">
    <g id="Layer_1" data-name="Layer 1" transform="translate(0 0)">
      <path id="Path_5" data-name="Path 5" d="M1045.085,684.341a24.213,24.213,0,0,1-26.849-26.849v-7.724a24.213,24.213,0,0,1,26.849-26.849h5.823a24.213,24.213,0,0,1,26.849,26.849v7.6a24.213,24.213,0,0,1-26.849,26.849Zm-25.5,37.7c0,164.33-133.215,297.545-297.545,297.545H350.446c-164.339,0-297.572-133.206-297.606-297.545V350.446C52.84,186.083,186.083,52.84,350.446,52.84H722.04c164.278,0,297.511,133.205,297.545,297.545V588.47a19.616,19.616,0,0,0,19.616,19.616h13.608a19.616,19.616,0,0,0,19.922-19.616V350.446A350.385,350.385,0,0,0,722.04,0H350.446C156.825,0-.068,156.947,0,350.507V722.04a350.385,350.385,0,0,0,350.446,350.691H722.04A350.385,350.385,0,0,0,1072.731,722.04h0a19.677,19.677,0,0,0-19.616-19.677h-13.608a19.677,19.677,0,0,0-19.616,19.677Z" transform="translate(0 0)" fill="url(#linear-gradient)"/>
    </g>
  </g>
</svg>
